<?xml version="1.0" standalone="no"?>
<!DOCTYPE svg PUBLIC "-//W3C//DTD SVG 20010904//EN"
 "http://www.w3.org/TR/2001/REC-SVG-20010904/DTD/svg10.dtd">
<svg version="1.0" xmlns="http://www.w3.org/2000/svg"
 width="720.000000pt" height="720.000000pt" viewBox="0 0 720.000000 720.000000"
 preserveAspectRatio="xMidYMid meet">

<g transform="translate(0.000000,720.000000) scale(0.100000,-0.100000)"
fill="#000000" stroke="none">
<path d="M1797 7193 c992 -2 2614 -2 3605 0 992 1 181 2 -1802 2 -1983 0
-2794 -1 -1803 -2z"/>
<path d="M2963 6863 c-7 -2 -13 -12 -13 -21 0 -32 39 -173 51 -188 10 -13 10
-17 -2 -25 -22 -14 -32 -11 -25 7 4 9 0 24 -7 33 -7 9 -19 36 -26 61 -18 63
-26 75 -46 75 -31 0 -41 -29 -23 -72 9 -21 24 -57 34 -80 10 -24 26 -44 38
-47 20 -5 20 -5 -2 -29 -12 -13 -22 -29 -22 -35 0 -17 -17 -15 -28 3 -4 9 -30
32 -57 51 -49 34 -49 34 -68 15 -25 -24 -16 -51 17 -51 14 0 28 -4 31 -10 3
-5 15 -10 26 -10 11 0 22 -7 26 -16 3 -8 12 -13 19 -10 8 3 14 -1 14 -8 0 -7
23 -44 51 -82 47 -64 53 -69 92 -71 30 -2 59 6 112 33 68 33 95 61 95 97 0 7
19 37 43 67 59 75 63 88 31 100 -14 6 -28 10 -32 10 -9 0 -52 -81 -52 -98 0
-9 -5 -10 -16 -4 -9 5 -26 7 -37 4 -16 -4 -19 -2 -14 11 4 10 2 17 -3 17 -6 0
-10 10 -10 23 0 13 -5 28 -12 35 -8 8 -8 15 -1 24 11 13 8 161 -3 179 -8 14
-50 11 -63 -5 -9 -11 -9 -33 2 -96 l14 -82 -33 -14 c-42 -17 -44 -17 -44 1 0
7 8 18 17 24 14 8 15 13 6 33 -7 12 -15 48 -19 78 -8 73 -22 89 -61 73z"/>
<path d="M3743 6845 c-3 -9 -2 -53 2 -97 5 -59 11 -86 23 -94 24 -18 9 -27
-31 -20 l-35 6 -6 78 c-4 42 -10 85 -12 95 -6 20 -52 24 -59 4 -5 -13 5 -72
25 -142 6 -22 12 -65 13 -95 2 -45 -1 -55 -14 -55 -9 0 -24 -6 -32 -14 -14
-11 -18 -10 -26 10 -21 50 -36 61 -73 51 l-33 -8 67 -68 c37 -37 70 -76 73
-86 4 -11 19 -27 33 -34 45 -23 138 -44 153 -35 8 5 21 6 31 3 12 -3 19 5 28
33 7 21 16 43 20 48 11 15 23 68 21 88 -1 9 4 17 11 17 7 0 26 15 43 34 16 18
40 39 53 45 23 12 23 13 6 32 -9 10 -22 19 -29 19 -9 0 -48 -46 -87 -104 -4
-7 -19 1 -38 19 -33 32 -38 45 -15 45 17 0 22 18 30 116 5 59 3 73 -10 77 -34
14 -44 -2 -40 -69 1 -35 -1 -67 -6 -70 -5 -3 -9 -17 -9 -30 0 -16 -5 -24 -12
-21 -10 3 -12 29 -10 99 2 53 1 106 -3 117 -7 25 -43 28 -52 6z"/>
<path d="M2323 6713 c-18 -7 -16 -35 7 -122 22 -85 28 -95 53 -76 17 12 17 19
6 95 -15 95 -30 118 -66 103z"/>
<path d="M2441 6696 c-9 -11 -9 -35 -1 -97 5 -46 10 -84 10 -85 0 -2 -50 -15
-70 -19 -3 0 -16 -7 -29 -14 -22 -12 -24 -12 -19 7 4 13 -1 27 -13 38 -11 10
-21 37 -25 65 -7 55 -23 74 -54 64 -25 -8 -25 -17 1 -85 11 -30 25 -68 31 -83
6 -17 16 -26 24 -23 19 7 24 -16 7 -36 -14 -16 -16 -16 -37 4 -31 30 -93 68
-110 68 -18 0 -40 -36 -30 -51 3 -6 17 -9 31 -6 16 3 27 -2 34 -15 6 -11 17
-17 25 -14 9 4 19 -4 26 -19 6 -14 17 -25 25 -25 9 0 12 -7 7 -24 -4 -17 2
-33 23 -57 16 -19 36 -46 46 -61 15 -23 21 -26 59 -21 24 3 75 22 113 42 56
29 72 42 80 68 6 18 26 54 45 80 54 73 60 85 48 100 -20 24 -48 14 -71 -24
-12 -21 -22 -42 -23 -48 -3 -25 -5 -27 -18 -16 -8 6 -18 11 -22 10 -19 -3 -37
1 -31 8 4 3 2 12 -5 20 -7 9 -11 55 -11 126 0 62 -4 118 -9 125 -14 16 -43 15
-57 -2z"/>
<path d="M2841 6247 c-17 -35 -31 -70 -31 -79 0 -8 -8 -23 -19 -32 -17 -16
-19 -16 -24 3 -2 10 0 42 5 69 11 54 5 86 -14 80 -18 -6 -39 -78 -37 -128 1
-25 -7 -63 -17 -85 -20 -47 -24 -159 -6 -192 8 -15 22 -23 38 -23 14 0 35 -5
46 -11 28 -15 115 -14 133 1 12 10 27 10 76 0 67 -14 80 -9 72 33 -5 27 -22
33 -76 27 -22 -2 -49 19 -41 31 3 5 0 18 -6 29 -9 17 -2 28 61 87 39 37 79 84
90 105 l19 38 -25 6 c-21 5 -34 -3 -84 -56 -64 -68 -94 -74 -59 -12 12 20 27
44 33 52 7 8 19 36 28 63 15 45 15 47 -2 47 -24 0 -121 -125 -121 -156 0 -17
-6 -24 -20 -24 -21 0 -27 15 -10 25 6 3 10 16 10 28 0 12 12 39 26 60 27 41
28 70 2 75 -11 2 -25 -16 -47 -61z"/>
<path d="M1796 6291 c-3 -5 -5 -45 -5 -90 2 -57 6 -82 16 -85 7 -3 13 -10 13
-16 0 -12 -57 -14 -64 -1 -3 5 -8 41 -11 80 -5 80 -9 91 -33 91 -40 -1 -45
-14 -33 -86 7 -38 15 -76 18 -84 16 -39 4 -134 -14 -116 -3 3 -13 0 -21 -7
-12 -10 -16 -9 -20 1 -7 22 -53 72 -66 72 -7 0 -21 -6 -31 -14 -18 -13 -15
-17 48 -78 37 -35 67 -70 67 -77 0 -26 140 -66 196 -55 31 6 38 14 64 70 17
35 30 72 30 84 0 11 5 20 10 20 6 0 25 16 43 35 18 20 41 35 54 35 13 0 23 6
23 13 0 18 -21 37 -40 37 -14 0 -62 -51 -85 -91 -9 -16 -12 -16 -37 6 -31 27
-35 40 -15 48 15 6 43 150 32 167 -3 5 -17 10 -30 10 -22 0 -24 -5 -29 -67 -9
-111 -10 -114 -26 -110 -9 2 -13 10 -10 22 3 11 5 58 5 105 0 79 -1 85 -22 88
-11 2 -24 -1 -27 -7z"/>
<path d="M2237 6128 c-16 -12 -16 -17 5 -83 12 -38 28 -78 36 -87 8 -9 11 -22
7 -27 -10 -17 -25 -13 -25 5 0 9 -6 22 -14 28 -8 6 -21 31 -29 56 -15 47 -51
67 -63 37 -8 -22 55 -144 77 -150 19 -5 19 -7 -3 -43 -12 -20 -24 -32 -26 -26
-2 6 -26 25 -53 43 -47 30 -51 31 -69 14 -25 -22 -15 -48 16 -41 12 3 26 2 29
-4 3 -5 15 -10 26 -10 10 0 19 -4 19 -10 0 -5 9 -10 20 -10 11 0 20 -6 20 -14
0 -7 23 -38 50 -68 48 -53 52 -55 88 -48 73 13 162 79 162 119 0 12 16 46 36
76 39 59 39 85 0 85 -20 0 -26 -8 -37 -44 -12 -40 -15 -44 -46 -44 -18 0 -32
3 -31 7 1 7 -10 39 -22 62 -4 9 -5 21 -1 27 12 20 -10 150 -26 156 -16 7 -53
-10 -53 -24 0 -5 7 -35 15 -67 20 -75 19 -78 -11 -92 -33 -14 -42 -7 -26 20 9
13 10 25 4 32 -5 7 -13 31 -17 54 -4 24 -14 52 -23 63 -15 18 -20 19 -35 8z"/>
<path d="M3165 6039 c-10 -15 34 -121 58 -142 18 -15 19 -20 6 -28 -29 -18
-44 -7 -72 52 -29 62 -50 80 -69 61 -14 -14 -3 -41 44 -102 19 -25 40 -61 46
-79 11 -31 10 -37 -9 -54 -12 -12 -24 -16 -28 -10 -14 23 -51 34 -72 23 -25
-14 -12 -35 29 -43 15 -3 49 -20 75 -37 44 -30 53 -32 114 -28 39 2 68 9 71
16 2 7 10 12 19 12 12 0 14 14 12 78 -1 42 3 90 9 105 7 16 12 31 12 34 0 4 8
15 17 25 12 14 14 21 5 30 -20 20 -39 0 -52 -51 -13 -55 -29 -64 -66 -36 -14
11 -16 17 -7 23 16 10 -15 142 -35 149 -22 9 -34 -11 -23 -38 20 -51 24 -65
26 -96 1 -22 -2 -30 -12 -26 -7 3 -13 13 -13 23 0 19 -38 118 -53 138 -12 15
-24 16 -32 1z"/>
<path d="M1223 5965 c-7 -20 16 -133 33 -162 11 -18 11 -23 -1 -33 -12 -10
-15 -9 -15 8 0 11 -7 25 -15 32 -7 6 -17 32 -21 56 -7 50 -31 71 -58 51 -14
-10 -14 -16 -3 -37 7 -14 19 -45 27 -69 8 -26 22 -46 32 -49 20 -5 23 -23 7
-39 -9 -9 -25 -2 -64 28 -59 45 -70 47 -85 19 -14 -27 -3 -43 25 -36 15 4 25
1 29 -9 3 -8 11 -15 17 -15 17 0 60 -50 53 -61 -3 -6 13 -34 35 -64 37 -48 46
-55 77 -55 57 0 174 67 174 99 0 10 20 45 45 77 25 31 45 61 45 65 0 5 -10 14
-22 20 -18 10 -24 8 -40 -12 -11 -12 -22 -35 -25 -51 -6 -28 -17 -36 -28 -18
-3 5 -12 7 -20 3 -9 -3 -15 1 -15 10 0 8 -4 17 -10 19 -10 3 -13 35 -10 140 1
75 -3 88 -29 88 -34 0 -41 -21 -31 -90 5 -36 10 -68 10 -71 0 -8 -52 -31 -58
-25 -3 3 1 12 7 20 10 11 10 28 0 78 -6 35 -16 71 -21 81 -11 21 -37 22 -45 2z"/>
<path d="M5981 5800 c-94 -91 -150 -128 -165 -108 -6 8 -19 17 -30 21 -17 7
-18 9 -2 25 9 10 16 26 16 35 0 9 5 19 10 22 6 4 2 18 -10 36 -35 48 -42 40
-66 -69 -7 -35 -22 -78 -34 -96 -11 -19 -20 -47 -20 -63 0 -50 30 -147 50
-165 11 -9 20 -21 20 -27 0 -6 9 -11 21 -11 43 0 165 23 177 33 10 8 16 8 20
0 4 -6 27 -14 52 -18 24 -4 55 -14 68 -23 28 -18 45 -6 40 29 -3 21 -11 25
-80 38 -77 13 -78 13 -72 40 10 39 27 68 32 53 6 -20 39 -14 122 24 66 30 80
41 80 60 0 29 -35 42 -58 21 -25 -22 -84 -51 -107 -53 -11 -1 -28 -5 -37 -9
-13 -5 -18 -3 -18 9 0 9 7 16 17 16 19 0 166 84 183 105 16 19 9 49 -12 53 -9
2 -30 -5 -45 -16 -15 -11 -52 -34 -80 -52 -39 -25 -53 -39 -53 -57 0 -13 -5
-23 -10 -23 -11 0 -30 42 -30 63 1 7 35 36 76 66 64 46 75 58 72 80 -2 20 -9
27 -29 29 -20 2 -41 -12 -98 -68z"/>
<path d="M5184 5743 c-3 -10 -10 -27 -14 -38 -5 -11 -12 -40 -16 -64 -3 -25
-18 -65 -32 -90 -19 -35 -27 -65 -30 -123 l-5 -77 29 -12 c16 -6 44 -18 63
-27 24 -12 56 -16 105 -15 45 2 86 -3 113 -13 49 -19 63 -13 63 25 0 31 -18
41 -73 41 -30 0 -32 4 -41 63 -3 26 -1 37 8 37 19 0 186 148 186 165 0 7 -9
16 -20 20 -19 6 -60 -18 -120 -72 -14 -13 -30 -23 -36 -23 -26 0 -21 16 20 64
24 28 53 70 65 94 21 40 21 42 2 42 -24 0 -141 -116 -141 -140 0 -18 -28 -36
-39 -25 -3 3 0 15 7 25 7 11 12 26 12 34 0 8 16 33 35 56 36 44 40 63 13 68
-16 3 -98 -106 -98 -132 0 -13 -28 -36 -44 -36 -10 0 2 63 19 104 9 21 14 45
11 52 -8 20 -36 17 -42 -3z"/>
<path d="M4515 5731 c-3 -6 -13 -37 -21 -68 -8 -32 -24 -73 -35 -91 -10 -18
-19 -46 -19 -62 0 -50 22 -125 45 -154 l23 -28 88 14 c81 13 93 13 136 -2 25
-9 54 -22 63 -30 14 -12 18 -12 26 1 23 35 6 53 -62 69 l-65 15 9 33 c10 32
21 40 31 23 6 -8 36 1 133 40 36 14 48 42 27 60 -12 9 -25 7 -62 -13 -48 -26
-112 -43 -112 -30 0 4 19 15 43 25 72 30 137 75 137 96 0 31 -29 33 -77 3 -24
-15 -57 -34 -71 -43 -15 -8 -29 -26 -32 -40 l-6 -24 -12 22 c-20 36 -14 46 49
88 34 22 65 47 69 55 10 20 -6 50 -27 50 -20 0 -120 -79 -128 -101 -3 -9 -13
-20 -23 -23 -9 -4 -29 -13 -44 -22 -25 -14 -29 -13 -47 5 -19 19 -19 23 -6 48
8 15 15 35 15 44 0 21 -36 54 -45 40z"/>
<path d="M4050 5628 c-13 -31 -31 -138 -25 -149 7 -10 -18 -89 -27 -89 -5 0
-8 -6 -8 -14 0 -9 -11 -14 -34 -13 -31 1 -34 4 -47 50 -14 54 -38 74 -68 57
-23 -12 -19 -37 14 -90 31 -51 45 -88 45 -115 0 -18 15 -36 55 -66 62 -47 61
-36 18 -169 -36 -112 -105 -248 -166 -326 -57 -72 -164 -164 -192 -164 -33 0
-46 60 -38 182 l8 113 35 -1 c62 -2 70 -4 70 -17 0 -20 87 -58 115 -51 14 3
40 27 58 53 30 41 34 56 40 134 7 88 7 88 -15 85 -20 -3 -23 -9 -22 -45 1 -34
-3 -42 -20 -47 -23 -6 -76 37 -76 62 0 29 -51 104 -67 98 -8 -3 -17 -6 -19 -6
-13 0 0 -35 27 -73 28 -39 29 -47 18 -66 -16 -24 -34 -29 -25 -6 9 23 -64 117
-86 111 -24 -6 -23 20 1 116 25 97 65 190 130 302 28 49 50 93 49 98 -7 19
-139 -73 -219 -152 l-86 -85 1 37 c1 20 4 40 9 44 4 4 7 18 7 30 0 13 9 28 20
34 27 14 25 28 -5 42 -36 16 -50 -1 -64 -82 -12 -64 -15 -70 -37 -70 -24 0
-34 23 -15 34 8 5 -5 57 -28 111 -5 11 -13 32 -19 47 -8 20 -16 25 -32 21 -33
-9 -35 -29 -6 -84 14 -28 26 -61 26 -74 0 -13 8 -26 17 -29 15 -6 15 -8 3 -16
-26 -17 -40 -11 -40 15 0 14 -6 36 -14 48 -8 12 -25 42 -39 67 -32 58 -51 70
-74 47 -16 -15 -16 -20 -3 -40 7 -12 20 -33 27 -47 38 -69 51 -85 71 -88 32
-5 27 -20 -10 -35 l-33 -13 -44 68 c-46 70 -72 88 -96 68 -27 -22 -16 -47 50
-115 36 -37 65 -71 65 -75 0 -4 7 -13 15 -20 8 -7 12 -17 9 -22 -4 -6 -1 -14
5 -18 9 -5 9 -11 -3 -23 -9 -8 -16 -20 -16 -26 0 -15 -11 -14 -58 9 -54 26
-70 25 -84 -6 -15 -32 -4 -40 67 -49 27 -4 73 -17 100 -30 48 -22 53 -23 104
-9 30 7 56 12 58 10 8 -7 -19 -420 -28 -438 -10 -19 -27 -23 -44 -10 -6 4 -45
60 -88 124 -177 268 -396 440 -650 513 -105 29 -217 43 -217 26 0 -16 27 -39
89 -76 l54 -33 -74 -38 c-58 -31 -76 -45 -83 -69 -6 -16 -28 -55 -50 -85 -56
-75 -59 -85 -31 -100 20 -11 27 -11 40 0 8 7 15 18 15 25 0 7 7 18 15 25 9 7
14 19 11 26 -7 17 13 29 26 16 6 -6 16 -8 23 -5 26 9 38 -40 39 -159 1 -130 7
-145 50 -128 27 10 28 11 21 73 -3 34 -8 74 -11 89 -5 24 -2 28 38 39 24 7 48
17 55 22 15 11 36 0 27 -14 -3 -6 1 -18 9 -27 8 -9 18 -35 21 -57 12 -67 16
-75 42 -75 33 0 38 19 20 72 -30 89 -47 120 -61 115 -21 -8 -26 19 -7 36 15
14 22 11 75 -29 32 -24 63 -44 67 -44 5 0 18 9 28 20 18 19 19 19 78 -48 145
-161 232 -294 337 -509 l62 -128 0 -370 c0 -417 4 -393 -81 -526 -56 -88 -100
-121 -169 -127 -45 -4 -62 0 -99 22 -90 53 -197 208 -279 404 -63 151 -63 152
-34 152 14 0 30 -7 37 -15 7 -8 17 -15 23 -15 17 0 61 -54 62 -77 0 -12 13
-35 28 -51 15 -15 27 -33 27 -39 0 -18 31 -37 64 -40 20 -1 59 13 110 40 70
37 81 47 93 80 7 21 31 61 53 89 22 28 40 57 40 64 0 18 -33 35 -48 25 -15 -9
-55 -81 -45 -81 4 0 2 -5 -4 -11 -7 -7 -17 -8 -25 -3 -7 5 -20 7 -28 6 -18 -3
-41 44 -40 84 0 16 0 64 1 106 1 88 -3 98 -36 98 -30 0 -45 -26 -35 -59 5 -14
11 -49 14 -77 4 -47 3 -52 -20 -63 -14 -6 -33 -11 -44 -11 -10 0 -22 -4 -25
-10 -10 -16 -35 -12 -28 5 3 9 -1 23 -9 33 -18 20 -34 71 -37 115 -1 21 -49
24 -57 3 -5 -14 10 -67 41 -139 11 -26 21 -37 31 -33 19 7 19 -28 -1 -44 -11
-9 -17 -9 -28 2 -8 7 -25 20 -37 28 -12 8 -33 23 -47 34 -23 17 -25 17 -43 1
-19 -17 -20 -17 -30 11 -42 110 -68 314 -47 372 5 13 4 22 -2 22 -31 0 -32
-147 -3 -270 87 -362 277 -703 427 -765 109 -46 213 20 303 193 l40 77 7 365
7 365 -35 80 c-144 333 -343 601 -594 799 -40 31 -73 63 -73 70 0 20 -29 41
-59 42 -25 2 -170 82 -171 95 0 3 26 2 58 -3 247 -38 474 -166 646 -364 38
-43 102 -129 142 -190 41 -62 81 -114 90 -118 56 -22 70 16 78 219 9 215 15
265 32 265 8 0 19 9 26 20 7 11 19 20 26 20 10 0 11 19 7 81 -3 44 -7 85 -10
89 -9 14 96 120 169 171 38 27 71 47 73 45 2 -2 -23 -54 -56 -117 -69 -133
-110 -256 -118 -354 -3 -38 -8 -74 -12 -80 -3 -5 -6 -105 -6 -221 0 -194 2
-214 19 -233 11 -11 27 -21 36 -21 25 0 142 101 199 172 65 80 130 210 173
344 50 159 58 143 58 -119 l0 -224 -57 -94 c-31 -52 -81 -128 -112 -169 -58
-79 -206 -232 -280 -291 l-43 -34 -2 -225 c-1 -212 0 -228 22 -281 12 -30 36
-69 53 -85 30 -28 33 -29 132 -28 179 1 240 39 395 243 214 284 421 486 656
642 183 121 256 151 408 164 l73 6 -101 -54 c-117 -64 -255 -151 -336 -214
-69 -53 -88 -99 -64 -156 21 -51 50 -67 121 -67 87 0 152 23 231 80 38 28 72
50 76 50 14 0 -33 -116 -68 -166 -32 -48 -43 -55 -134 -93 -101 -42 -232 -80
-350 -102 -122 -23 -248 -106 -401 -265 -223 -233 -292 -433 -175 -509 60 -40
222 -38 398 4 69 16 90 28 299 177 253 181 330 234 376 258 32 16 493 129 500
122 6 -6 -180 -117 -301 -180 -60 -31 -244 -142 -410 -245 -311 -195 -478
-294 -556 -330 -25 -11 -116 -34 -203 -51 -87 -17 -177 -38 -199 -47 -77 -31
-292 -222 -295 -263 -1 -12 -7 -54 -12 -93 -52 -355 -93 -1246 -80 -1707 4
-124 6 -226 5 -227 -1 -1 -31 2 -66 7 -334 50 -524 62 -670 41 -30 -5 -56 -8
-57 -7 -1 1 16 60 38 131 371 1195 162 1990 -632 2404 -159 83 -311 138 -440
158 -172 26 -514 24 -717 -5 -110 -16 -157 -20 -171 -12 -33 17 -60 13 -54 -9
4 -15 -3 -20 -34 -25 -21 -4 -47 -9 -58 -12 -34 -8 54 65 115 96 54 27 143 58
228 80 23 6 42 14 42 18 0 4 -37 26 -83 49 -45 24 -108 63 -139 88 -54 42
-148 149 -148 169 0 4 35 -25 78 -65 126 -119 253 -170 472 -189 197 -17 211
-14 136 31 -24 15 -57 46 -73 70 -31 46 -80 163 -65 157 5 -1 30 -28 57 -58
93 -106 221 -202 316 -236 76 -26 120 -33 304 -44 215 -13 404 -35 494 -57 73
-18 141 -48 141 -63 0 -6 5 -10 10 -10 18 0 11 152 -10 234 -27 108 -63 169
-150 257 -96 97 -202 161 -384 234 -80 31 -179 78 -220 103 -75 47 -210 156
-220 179 -2 6 28 -6 67 -27 90 -49 233 -97 315 -106 l62 -7 0 100 c0 174 44
297 160 452 61 80 82 98 74 64 -28 -133 -65 -377 -61 -410 6 -52 34 -93 94
-132 54 -36 63 -38 63 -13 1 9 16 57 35 107 19 49 32 92 29 94 -8 9 -20 -17
-50 -105 -16 -46 -34 -84 -41 -84 -7 0 -36 22 -63 48 -48 46 -50 51 -50 103 0
30 9 101 20 159 29 147 48 290 40 290 -13 0 -95 -93 -137 -155 -91 -136 -126
-243 -127 -392 l-1 -103 -31 0 c-64 0 -193 42 -314 103 -69 34 -128 64 -132
65 -5 2 -8 -3 -8 -11 0 -22 143 -150 239 -215 54 -36 139 -78 237 -117 190
-76 297 -140 388 -230 111 -110 166 -234 166 -377 l0 -67 -44 19 c-90 40 -249
64 -565 85 -227 15 -297 28 -376 67 -95 48 -222 159 -312 273 -17 22 -34 37
-38 33 -9 -9 20 -119 46 -170 12 -24 40 -63 63 -87 l41 -43 -100 7 c-144 10
-318 52 -358 86 -7 5 -33 23 -59 40 -44 28 -158 142 -158 157 0 4 11 20 25 35
24 25 25 30 14 69 -11 42 -24 78 -39 108 -4 8 -3 32 2 53 5 21 6 42 3 47 -3 5
2 21 10 34 16 24 16 25 -9 32 -39 9 -46 -2 -46 -78 l0 -70 -37 7 c-45 8 -52
13 -34 24 14 9 3 32 -52 118 -29 45 -47 53 -67 28 -10 -12 -5 -23 26 -61 21
-25 39 -53 40 -62 1 -10 5 -25 9 -34 4 -11 3 -18 -4 -18 -6 0 -17 15 -25 33
-22 51 -109 142 -129 134 -9 -3 -17 -14 -17 -24 0 -24 114 -148 128 -139 24
15 20 -15 -4 -31 l-27 -17 -57 62 c-58 63 -76 72 -98 50 -22 -22 -13 -37 51
-87 78 -63 87 -71 115 -105 23 -27 23 -28 5 -49 -10 -12 -19 -24 -20 -26 -1
-2 -8 1 -15 6 -28 22 -56 21 -79 -3 -12 -13 -20 -27 -16 -30 3 -4 39 -10 79
-14 40 -5 87 -13 105 -20 30 -11 63 -7 114 14 11 5 21 -4 35 -36 23 -51 120
-157 183 -201 26 -17 73 -46 106 -64 37 -20 54 -34 45 -37 -8 -2 -42 -12 -75
-21 -94 -26 -215 -89 -270 -141 -58 -55 -51 -62 41 -41 51 12 65 12 85 1 13
-7 34 -13 46 -14 19 0 22 -5 20 -37 -1 -21 -6 -38 -12 -38 -5 0 -16 -4 -22 -8
-7 -5 -49 -10 -93 -13 -140 -9 -165 -15 -168 -47 -4 -35 17 -43 77 -29 25 6
64 14 86 17 40 6 41 6 62 -41 24 -51 21 -74 -8 -74 -10 0 -19 -3 -19 -8 0 -8
-71 -32 -94 -32 -9 0 -20 -9 -25 -19 -13 -23 10 -46 36 -38 85 27 153 63 153
82 0 19 13 19 51 0 l30 -16 -23 -32 c-24 -33 -42 -62 -54 -86 -4 -8 0 -19 11
-27 30 -22 45 -17 45 16 0 17 4 30 9 30 10 0 35 58 34 78 0 6 6 12 14 12 25 0
155 112 144 123 -5 5 -7 15 -5 22 7 17 -29 86 -66 129 -22 24 -45 38 -80 46
-27 6 -54 18 -60 25 -11 14 37 23 245 45 112 12 395 13 395 1 0 -5 -6 -14 -14
-20 -22 -18 -46 -99 -46 -153 0 -27 -6 -63 -13 -81 -17 -44 -16 -102 2 -102 9
0 19 22 27 64 7 35 16 66 19 70 13 13 23 -25 23 -96 1 -82 16 -118 38 -88 8
11 9 26 4 45 -9 31 -6 117 4 113 3 -2 11 -3 17 -3 7 0 9 -10 5 -26 -7 -27 18
-129 36 -151 24 -29 31 -12 25 60 -4 39 -10 83 -13 96 -5 18 -4 23 7 19 8 -3
26 -34 41 -69 19 -46 32 -65 47 -67 16 -3 21 2 21 20 0 24 -54 163 -71 184 -8
9 -4 21 12 43 23 31 43 39 53 22 3 -5 17 -11 31 -13 19 -4 29 0 36 14 17 32 4
48 -40 48 -27 0 -49 8 -68 23 -15 13 -37 27 -47 31 -43 15 -2 16 79 1 106 -20
197 -52 340 -119 477 -227 751 -573 841 -1066 25 -133 30 -436 10 -610 -30
-251 -88 -514 -173 -773 -24 -76 -42 -141 -39 -144 3 -3 12 -1 19 6 20 16 143
30 267 31 99 0 329 -26 485 -55 39 -7 70 -12 71 -11 0 0 -3 100 -8 221 -14
423 36 1583 71 1618 18 18 382 1 566 -26 353 -53 428 -58 830 -59 358 0 601
10 723 32 34 6 60 6 72 0 10 -5 33 -10 51 -12 19 -1 46 -8 62 -15 21 -10 27
-11 27 -1 0 9 3 9 12 0 22 -22 58 -13 89 20 16 18 29 38 29 45 0 6 8 19 17 28
16 16 17 16 24 -4 7 -19 15 -20 76 -17 37 2 87 4 110 5 37 1 43 5 49 26 9 35
-13 58 -45 50 -72 -17 -117 -22 -134 -13 -13 7 -25 5 -43 -7 -24 -15 -24 -15
-24 16 0 30 2 31 30 25 17 -3 50 -1 73 4 23 5 69 16 102 23 57 12 60 14 60 42
l0 30 -58 -3 c-33 -1 -69 -8 -80 -14 -12 -6 -35 -11 -50 -10 -23 2 -30 -3 -38
-28 -16 -45 -37 -38 -45 15 -3 25 -5 47 -3 48 13 8 149 47 165 47 41 0 58 47
30 85 -13 18 -15 19 -57 1 -24 -10 -57 -24 -72 -32 -16 -8 -34 -14 -40 -14 -6
0 -21 -9 -33 -21 -16 -15 -37 -21 -73 -22 -28 -1 -51 -5 -51 -9 0 -17 -19 -6
-26 14 -4 13 -14 29 -23 35 -14 12 -14 14 5 30 11 10 34 35 49 56 l28 38 -26
26 c-33 34 -46 24 -88 -65 -18 -36 -49 -82 -69 -102 -34 -33 -39 -45 -45 -104
-4 -36 -4 -90 -1 -119 l7 -52 -88 7 c-48 3 -180 7 -293 8 -156 1 -199 4 -180
12 148 63 261 137 334 218 49 54 117 160 110 171 -3 5 -31 -12 -62 -38 -80
-65 -151 -109 -257 -159 -97 -46 -301 -117 -319 -111 -6 2 14 19 45 39 73 47
127 95 144 129 8 15 23 67 34 116 26 116 29 123 53 123 11 0 41 7 67 15 25 8
58 17 74 20 18 4 27 12 27 25 0 24 -24 26 -64 5 -35 -18 -36 -18 -36 -1 0 8
-5 16 -11 18 -12 4 19 78 32 78 4 0 24 20 45 45 30 37 34 48 24 60 -7 8 -16
15 -20 15 -8 0 -67 -75 -73 -93 -1 -5 -19 -4 -45 3 -38 12 -41 15 -36 39 4 14
15 41 25 59 24 42 24 48 -2 55 -13 4 -22 0 -26 -11 -2 -9 -10 -27 -16 -40 -6
-13 -11 -39 -11 -58 0 -26 -4 -34 -18 -34 -12 0 -19 11 -23 38 -11 60 -16 72
-30 72 -20 0 -29 -20 -16 -33 6 -6 11 -19 11 -29 0 -10 4 -18 9 -18 11 0 9
-53 -2 -61 -5 -4 -11 -29 -13 -58 -6 -59 11 -84 64 -96 l33 -7 -21 -35 c-58
-99 -184 -209 -310 -273 -66 -33 -93 -41 -186 -51 -168 -18 -356 -7 -579 35
-195 36 -354 56 -454 56 l-56 1 93 90 c116 113 156 132 367 174 150 29 170 36
276 92 63 33 185 103 273 157 87 54 172 102 189 107 89 25 522 1 837 -47 30
-4 42 -3 35 4 -25 25 -408 63 -662 65 -99 1 -180 4 -178 7 2 3 37 27 79 53 75
48 76 48 193 58 195 16 290 -5 458 -102 90 -52 155 -83 155 -75 0 10 -238 141
-299 165 -60 23 -79 25 -223 26 -87 0 -158 1 -158 2 0 6 87 57 221 129 79 42
174 97 210 120 l67 42 11 -51 c20 -86 12 -157 -17 -157 -10 0 -23 -5 -30 -12
-9 -9 -12 -9 -12 0 0 7 -10 27 -22 45 -13 18 -24 34 -25 36 -1 2 -14 1 -28 -3
-36 -9 -31 -31 23 -89 26 -29 54 -64 61 -79 10 -20 31 -33 86 -52 99 -35 133
-31 162 20 34 60 44 86 39 101 -3 8 1 16 9 19 8 4 15 11 15 16 0 18 61 67 75
61 20 -7 30 23 15 42 -19 23 -31 18 -82 -30 -30 -30 -52 -43 -62 -39 -20 8
-21 34 -1 34 8 0 15 2 15 5 0 3 9 39 20 81 11 41 18 79 15 85 -7 11 -55 12
-56 2 0 -5 -2 -30 -4 -56 -3 -27 -10 -56 -17 -65 -7 -8 -12 -23 -10 -33 2 -14
-1 -17 -13 -13 -12 5 -15 13 -10 28 4 11 11 55 16 95 8 62 7 78 -6 90 -27 27
-43 -5 -50 -96 -5 -70 -3 -83 10 -83 8 0 15 -4 15 -10 0 -11 -37 -12 -60 -2
-12 5 -15 26 -15 87 0 90 -10 101 -69 71 -17 -9 -112 -34 -211 -57 -99 -22
-189 -43 -200 -46 -35 -10 22 44 72 68 52 25 60 36 40 57 -14 14 -19 13 -53
-13 -24 -19 -39 -25 -42 -17 -2 7 -9 12 -16 12 -17 0 -11 68 7 90 22 26 38 64
40 95 2 26 -2 30 -22 30 -20 0 -26 -8 -37 -54 -18 -68 -19 -69 -49 -63 -25 4
-35 22 -12 22 7 0 19 28 28 65 13 53 14 67 3 76 -7 6 -17 8 -22 5 -13 -8 -32
-87 -32 -130 0 -23 -5 -36 -13 -36 -10 0 -12 13 -10 48 2 26 5 58 6 72 2 19
-3 26 -20 28 -20 3 -23 -1 -24 -30 -1 -18 -2 -49 -4 -68 -2 -19 2 -38 9 -43 7
-5 3 -13 -14 -27 -31 -24 -40 -25 -40 -2 0 28 -48 92 -65 86 -20 -8 -19 -26 3
-45 32 -30 60 -67 59 -80 -1 -8 2 -37 7 -66 10 -67 36 -86 112 -81 59 3 72 -6
24 -17 -38 -8 -157 -87 -424 -278 -122 -88 -227 -155 -252 -163 -148 -44 -346
-54 -413 -19 -127 65 -43 277 209 526 129 128 229 193 329 215 246 52 454 126
497 177 30 36 78 130 88 172 4 17 9 38 12 48 9 28 -14 20 -85 -32 -96 -69
-121 -80 -211 -92 -89 -11 -116 -2 -138 47 -22 47 -11 90 32 126 51 43 252
172 374 238 72 40 132 75 132 78 0 9 -164 -6 -240 -23 -196 -44 -529 -284
-771 -556 -61 -69 -169 -203 -267 -333 -76 -101 -174 -146 -317 -146 -99 0
-121 13 -155 92 -28 63 -37 217 -25 400 l8 113 66 55 c49 40 60 47 44 25 -11
-17 -30 -39 -42 -49 -12 -11 -26 -37 -32 -58 -11 -41 -10 -42 34 -93 41 -46
51 -55 64 -55 7 0 13 -6 13 -14 0 -8 7 -16 15 -20 8 -3 15 -16 15 -29 0 -13 5
-28 12 -35 8 -8 8 -15 -2 -27 -17 -21 0 -39 29 -30 31 10 25 52 -20 137 -7 13
-4 20 11 28 24 13 41 5 34 -14 -7 -18 121 -110 141 -102 23 8 18 45 -7 57 -45
20 -72 38 -80 53 -5 9 -19 16 -31 16 -20 0 -20 1 -4 17 15 15 18 15 34 1 10
-9 49 -32 88 -53 63 -33 70 -35 81 -20 20 26 8 40 -64 73 -71 34 -92 39 -92
22 0 -5 -4 -10 -10 -10 -15 0 -12 22 8 48 l17 22 65 -25 c78 -31 97 -31 106
-3 9 29 -14 44 -85 58 -123 23 -157 44 -157 95 1 22 6 30 21 31 64 3 75 6 84
23 7 13 6 23 -3 36 -12 17 -16 16 -72 -9 -57 -27 -134 -42 -134 -27 0 4 18 25
41 46 65 63 164 194 234 311 l65 108 0 219 c0 219 0 219 21 214 25 -7 69 19
69 39 0 8 4 14 9 14 13 0 61 52 59 64 -3 13 52 70 59 62 3 -3 15 0 27 7 11 6
34 12 50 12 36 0 42 15 18 45 l-19 24 -72 -36 c-69 -35 -71 -36 -82 -16 -9 16
-7 20 10 25 20 5 40 32 89 121 18 34 21 46 11 58 -19 23 -48 17 -61 -13 -30
-75 -41 -95 -54 -100 -8 -3 -14 -14 -14 -24 0 -21 -15 -25 -25 -9 -4 6 -25 18
-46 27 -37 15 -40 18 -33 47 3 17 13 49 21 71 24 66 19 86 -24 100 -18 5 -25
1 -33 -17z m-1241 -622 c19 -20 21 -26 9 -26 -9 0 -21 7 -28 15 -7 8 -17 15
-22 15 -16 0 -65 54 -60 68 4 13 56 -24 101 -72z m801 26 c0 -4 20 -29 45 -55
26 -26 43 -52 40 -57 -8 -13 -105 85 -105 105 0 8 5 15 10 15 6 0 10 -3 10 -8z
m57 -134 c8 2 13 -7 13 -19 0 -15 -4 -19 -16 -15 -9 3 -29 6 -45 6 -27 0 -29
3 -29 36 l0 35 32 -23 c18 -12 39 -22 45 -20z m1642 -2259 c-23 -108 -60 -147
-249 -267 -36 -23 -61 -42 -57 -42 24 0 225 56 307 87 125 47 211 90 310 158
87 59 88 58 27 -23 -78 -103 -221 -197 -380 -250 l-87 -29 272 -7 c432 -10
500 -24 233 -45 -421 -33 -984 -22 -1325 28 -295 42 -427 54 -556 49 -100 -4
-114 -2 -110 11 3 9 10 55 16 104 l12 87 97 0 c119 0 213 -11 451 -54 230 -42
346 -50 525 -36 132 10 145 13 220 50 95 46 195 120 256 188 24 27 45 49 47
47 1 -1 -3 -26 -9 -56z"/>
<path d="M4179 5603 c-6 -16 -15 -36 -20 -45 -5 -10 -9 -24 -9 -32 0 -7 -7
-26 -15 -42 -13 -26 -13 -30 6 -47 27 -25 36 -16 78 86 25 62 29 82 20 93 -19
23 -48 17 -60 -13z"/>
<path d="M1685 5557 c-3 -7 -1 -34 4 -61 5 -27 7 -55 4 -63 -3 -7 2 -16 11
-19 9 -3 16 -13 16 -21 0 -10 -9 -13 -32 -11 -33 3 -33 4 -43 73 -8 55 -14 71
-29 73 -30 6 -38 -11 -26 -59 6 -24 13 -52 15 -63 2 -10 8 -23 13 -30 4 -6 8
-28 8 -49 -1 -30 -6 -40 -26 -50 -22 -11 -27 -9 -55 22 -29 31 -33 33 -55 21
l-25 -13 35 -26 c19 -14 53 -45 75 -68 36 -36 50 -43 106 -53 91 -15 117 -5
139 53 10 26 16 47 13 47 -3 0 0 6 6 14 16 19 2 46 -36 75 -21 16 -25 23 -15
29 8 6 16 39 19 86 6 78 6 78 -18 74 -23 -3 -24 -6 -24 -80 1 -63 -2 -78 -15
-78 -12 0 -16 17 -18 86 -1 48 -5 90 -8 95 -8 13 -34 11 -39 -4z"/>
<path d="M902 5428 c-17 -17 -15 -53 4 -69 9 -7 30 -33 46 -58 l31 -44 -30
-28 c-17 -15 -34 -36 -38 -48 -7 -24 -25 -28 -25 -6 0 9 -8 18 -17 22 -10 3
-37 26 -59 51 -33 34 -46 43 -63 37 -11 -3 -21 -14 -21 -24 0 -23 123 -123
147 -119 12 2 18 -3 17 -14 0 -10 -1 -31 -2 -47 l-2 -29 -37 14 c-21 7 -57 13
-79 14 -37 0 -42 -3 -47 -26 -5 -28 13 -42 35 -27 22 14 136 11 142 -4 3 -7
12 -13 21 -13 8 0 23 -4 33 -9 89 -46 88 -45 125 -28 62 30 134 147 117 191
-6 17 -6 53 2 106 6 44 9 82 7 84 -2 2 -17 2 -33 -1 -28 -6 -28 -7 -24 -64 4
-52 2 -59 -14 -59 -10 0 -18 -4 -18 -10 0 -5 -9 -10 -21 -10 -11 0 -17 5 -14
10 3 6 1 10 -5 10 -16 0 -59 52 -60 71 0 9 -7 22 -15 29 -8 7 -15 18 -15 24 0
19 -50 86 -63 86 -7 0 -18 -5 -25 -12z"/>
<path d="M1882 5400 c-26 -35 -45 -80 -34 -80 4 0 19 13 32 30 14 16 30 29 36
30 6 0 17 6 23 14 10 12 8 17 -8 25 -26 14 -24 15 -49 -19z"/>
<path d="M781 5366 c-10 -11 -1 -27 45 -78 52 -59 82 -84 88 -76 2 1 6 16 10
31 6 24 3 30 -14 34 -11 3 -20 10 -20 15 0 17 -65 88 -81 88 -9 0 -22 -6 -28
-14z"/>
<path d="M5941 5226 c-17 -31 -31 -63 -31 -71 0 -18 -29 -65 -40 -65 -4 0 -5
24 -3 53 10 98 9 112 -7 112 -20 0 -39 -57 -39 -118 -1 -26 -8 -64 -16 -84
-20 -46 -20 -162 0 -189 8 -12 31 -24 52 -28 21 -3 53 -9 71 -12 19 -4 51 -1
73 6 30 10 51 11 87 2 54 -12 71 -3 64 33 -5 29 -30 39 -72 30 -21 -5 -31 -3
-33 7 -2 7 -9 28 -15 46 -7 21 -7 32 0 32 13 0 129 125 147 158 12 23 11 27
-5 39 -16 12 -25 7 -80 -48 -72 -71 -100 -72 -51 -1 19 26 41 68 50 95 15 44
15 47 -2 47 -24 0 -111 -113 -111 -144 0 -13 -8 -27 -17 -30 -23 -9 -37 8 -18
24 8 7 15 23 15 37 0 13 9 37 21 52 21 29 23 61 3 68 -7 2 -26 -21 -43 -51z"/>
<path d="M4365 5117 c-28 -23 -59 -51 -70 -62 -11 -11 -37 -29 -58 -40 l-37
-19 -20 21 c-18 20 -18 24 -5 50 19 35 19 57 1 72 -18 15 -30 -1 -45 -64 -7
-27 -22 -65 -33 -83 -19 -31 -20 -40 -11 -107 6 -40 19 -85 29 -99 18 -25 22
-26 74 -20 30 4 64 8 75 9 11 1 28 5 39 10 11 5 21 4 25 -3 4 -6 26 -14 49
-18 23 -3 47 -13 53 -20 15 -18 29 -8 29 20 0 20 -7 24 -71 35 -55 10 -69 16
-65 28 4 8 9 26 12 39 6 24 29 33 36 14 3 -9 31 -1 115 34 42 18 62 50 37 60
-15 6 -89 -28 -100 -45 -3 -5 -16 -6 -29 -3 -12 3 -26 1 -29 -5 -12 -19 -29
-12 -23 9 3 11 2 20 -2 20 -5 0 -12 15 -17 32 -9 30 -7 35 21 55 16 12 46 31
67 42 41 23 49 38 36 64 -13 25 -28 21 -83 -26z"/>
<path d="M2030 5069 c-13 -9 -12 -10 3 -5 12 4 21 -1 27 -17 5 -12 9 -17 9
-10 1 16 -10 43 -18 43 -3 0 -13 -5 -21 -11z"/>
<path d="M4434 5036 c-46 -29 -70 -50 -72 -64 -5 -30 5 -28 92 19 52 28 76 47
76 59 0 32 -25 29 -96 -14z"/>
<path d="M1438 5058 c-7 -20 49 -143 66 -146 23 -5 20 -22 -4 -22 -11 0 -23 0
-27 -1 -3 0 -19 23 -34 53 -38 73 -46 80 -69 68 -11 -6 -20 -15 -20 -20 0 -4
21 -39 46 -77 26 -37 53 -82 60 -100 13 -29 12 -32 -11 -47 -14 -9 -25 -12
-25 -7 0 5 -14 14 -30 21 -24 10 -33 10 -45 0 -23 -19 -19 -26 30 -44 24 -10
60 -28 80 -42 29 -19 49 -24 100 -24 43 0 68 5 79 15 8 8 20 15 26 15 8 0 11
25 9 78 -1 42 3 90 9 105 7 16 12 31 12 34 0 4 7 14 16 24 19 21 11 39 -16 39
-15 0 -23 -13 -36 -55 -14 -50 -18 -55 -37 -49 -31 9 -44 23 -30 32 9 6 9 18
2 47 -6 22 -14 54 -18 70 -4 20 -14 31 -29 33 -26 4 -28 -11 -7 -61 17 -41 20
-97 5 -97 -5 0 -10 8 -10 19 0 20 -37 118 -53 139 -12 15 -34 16 -39 0z"/>
<path d="M1924 5056 c-3 -8 -1 -23 5 -33 9 -15 10 -12 5 12 l-7 30 22 -25 22
-25 -17 28 c-19 31 -22 33 -30 13z"/>
<path d="M2032 5020 c-1 -14 3 -43 7 -65 6 -26 9 -31 9 -15 1 14 -3 43 -7 65
-6 26 -9 31 -9 15z"/>
<path d="M2072 4995 c0 -16 2 -22 5 -12 2 9 2 23 0 30 -3 6 -5 -1 -5 -18z"/>
<path d="M1860 4988 c1 -20 29 -65 30 -48 0 13 1 13 11 0 8 -11 9 -9 3 10 -8
29 -23 50 -35 50 -5 0 -9 -6 -9 -12z m30 -26 c0 -15 -2 -15 -10 -2 -13 20 -13
33 0 25 6 -3 10 -14 10 -23z"/>
<path d="M1988 4955 c5 -11 12 -27 15 -35 5 -13 6 -13 6 1 1 8 -6 24 -15 35
-15 19 -15 19 -6 -1z"/>
<path d="M1950 4950 c0 -17 17 -47 23 -40 2 3 -2 16 -10 30 -7 14 -13 18 -13
10z"/>
<path d="M2081 4944 c0 -11 3 -14 6 -6 3 7 2 16 -1 19 -3 4 -6 -2 -5 -13z"/>
<path d="M1073 4934 c-3 -9 -1 -45 6 -81 12 -67 9 -83 -15 -83 -8 0 -14 10
-14 24 0 14 -4 27 -9 31 -5 3 -12 18 -16 33 -3 15 -17 41 -30 57 -21 25 -24
27 -25 11 0 -35 33 -141 49 -152 17 -13 8 -44 -14 -44 -8 0 -15 9 -15 19 0 10
-6 21 -14 24 -8 3 -20 24 -27 46 -12 39 -33 59 -44 41 -6 -9 41 -108 62 -128
16 -16 17 -52 2 -52 -6 0 -32 20 -57 45 -29 29 -49 42 -55 36 -12 -12 20 -54
64 -87 17 -12 43 -42 59 -67 26 -41 100 -97 128 -97 6 0 23 10 37 23 64 56 85
81 85 100 0 11 18 37 40 58 46 44 47 50 21 66 -17 11 -23 9 -40 -14 -12 -14
-21 -30 -21 -34 0 -12 -37 -11 -45 1 -3 6 -15 10 -26 10 -14 0 -19 7 -19 27 0
34 -19 140 -32 176 -12 30 -26 35 -35 11z"/>
<path d="M1890 4913 c0 -7 10 -22 23 -35 12 -13 17 -17 11 -8 -6 8 -16 24 -22
35 -6 11 -12 15 -12 8z"/>
<path d="M1926 4898 c10 -14 21 -24 23 -22 3 3 -6 15 -18 27 l-24 22 19 -27z"/>
<path d="M2598 4906 c-20 -14 -25 -56 -7 -56 6 0 8 -8 5 -17 -3 -10 0 -40 7
-68 11 -43 17 -50 40 -53 24 -3 27 0 27 25 -1 36 -33 160 -46 172 -5 6 -16 5
-26 -3z"/>
<path d="M2091 4894 c0 -11 3 -14 6 -6 3 7 2 16 -1 19 -3 4 -6 -2 -5 -13z"/>
<path d="M1815 4890 c-14 -22 79 -110 97 -92 6 6 6 12 -3 17 -8 5 -10 4 -5 -3
15 -25 -12 -10 -47 25 -49 48 -48 67 1 22 l37 -34 -34 38 c-39 42 -38 41 -46
27z"/>
<path d="M2205 4870 c-10 -11 -16 -22 -14 -24 2 -2 12 7 22 20 22 29 17 32 -8
4z"/>
<path d="M2249 4876 c9 -11 5 -19 -21 -41 -18 -15 -26 -24 -18 -20 21 11 60
47 60 56 0 4 -7 10 -16 13 -14 5 -15 4 -5 -8z"/>
<path d="M506 4867 c-21 -16 -20 -21 17 -114 l25 -63 -29 -21 c-34 -24 -49
-18 -31 11 12 20 7 50 -9 50 -5 0 -9 8 -9 17 0 25 -41 104 -57 110 -8 3 -22
-2 -31 -11 -15 -15 -13 -22 23 -97 22 -44 46 -84 54 -89 8 -4 11 -15 8 -24 -8
-21 -27 -21 -27 2 0 9 -8 22 -18 28 -10 7 -29 35 -43 63 -25 54 -50 64 -72 30
-10 -15 22 -75 66 -123 9 -11 17 -23 17 -28 0 -4 9 -8 20 -8 11 0 20 -4 20
-10 0 -8 -19 -58 -26 -69 -2 -2 -15 5 -31 16 -64 43 -116 55 -127 27 -14 -36
-7 -47 24 -41 16 4 32 2 36 -4 3 -6 15 -9 25 -6 10 3 23 -1 30 -9 6 -8 15 -11
20 -8 5 3 26 -12 48 -33 73 -73 103 -93 130 -86 42 10 75 29 125 75 40 36 48
50 52 86 2 24 15 66 29 94 32 64 32 86 -1 94 -32 8 -41 -5 -50 -67 -6 -43 -8
-45 -39 -46 -28 -1 -36 5 -56 41 -13 22 -22 53 -20 68 1 14 -3 29 -9 33 -5 3
-8 10 -6 14 9 14 -29 106 -45 109 -8 1 -23 -4 -33 -11z"/>
<path d="M2134 4835 c15 -8 33 -15 40 -15 6 0 -2 7 -18 15 -15 8 -33 15 -40
15 -6 0 2 -7 18 -15z"/>
<path d="M2187 4793 c-4 -3 -7 -14 -7 -24 0 -10 -12 -32 -27 -51 l-26 -33 26
25 c15 14 31 40 36 58 10 33 9 37 -2 25z"/>
<path d="M1926 4755 c22 -39 54 -74 79 -87 11 -6 2 7 -20 28 -23 22 -49 50
-59 64 -17 25 -17 24 0 -5z"/>
<path d="M2099 4674 c-7 -9 -22 -20 -34 -24 -14 -6 -15 -9 -4 -9 8 -1 26 10
39 24 13 14 21 25 18 25 -3 0 -12 -7 -19 -16z"/>
<path d="M6015 4648 c-2 -7 -9 -31 -14 -54 -6 -23 -26 -57 -46 -76 -19 -20
-37 -49 -40 -65 -3 -15 -10 -49 -16 -76 -9 -38 -8 -51 3 -64 23 -28 130 -73
175 -73 26 0 59 -9 85 -24 24 -13 62 -26 86 -30 37 -6 42 -4 42 13 0 15 -10
23 -42 31 -49 12 -108 40 -108 50 0 12 49 18 83 11 18 -4 58 -5 90 -3 48 3 58
7 55 20 -3 13 -17 17 -63 19 -51 2 -105 7 -132 12 -3 0 2 10 12 21 13 15 22
17 36 10 26 -14 159 8 183 30 18 17 17 18 -20 24 -22 4 -74 4 -116 1 -115 -9
-99 18 35 59 49 15 57 21 57 42 0 17 -6 24 -20 24 -26 0 -202 -50 -217 -62 -8
-7 -23 -1 -48 17 -19 15 -35 30 -35 34 0 3 10 25 22 49 23 43 23 43 4 58 -24
17 -45 18 -51 2z"/>
<path d="M4185 4614 c-28 -13 -60 -24 -72 -24 -27 0 -98 -84 -106 -125 -5 -26
0 -37 29 -68 20 -20 41 -37 47 -37 10 0 38 -33 43 -50 0 -3 4 -13 8 -22 4 -9
5 -22 1 -28 -9 -15 24 -25 38 -11 8 8 5 23 -11 56 -26 54 -27 65 -7 65 8 0 15
-6 15 -12 0 -16 108 -80 121 -72 21 13 7 42 -28 58 -60 26 -86 43 -75 50 5 3
37 -8 71 -24 74 -36 94 -38 89 -9 -2 15 -19 28 -60 44 -32 13 -60 19 -63 14
-7 -11 -25 -12 -25 -1 0 4 7 15 14 25 13 17 16 17 66 -2 58 -22 83 -18 78 12
-2 16 -15 24 -52 33 -28 7 -53 11 -57 8 -4 -2 -24 3 -43 13 -51 24 -49 56 4
72 39 12 47 24 32 48 -5 8 -21 5 -57 -13z"/>
<path d="M1730 4614 c0 -9 5 -46 12 -82 9 -48 17 -66 30 -70 24 -6 23 -22 -1
-22 -11 0 -26 -2 -33 -5 -11 -4 -18 11 -28 60 -16 74 -34 97 -67 84 -13 -4
-23 -13 -23 -18 0 -19 39 -110 56 -131 7 -8 14 -34 17 -57 3 -36 0 -45 -19
-58 -21 -13 -25 -12 -54 15 -36 33 -65 39 -74 14 -8 -22 6 -38 57 -64 23 -12
53 -34 67 -49 22 -24 36 -29 98 -34 51 -4 82 -2 106 8 35 15 38 22 52 133 4
23 10 42 15 42 5 0 9 7 9 15 0 9 7 18 15 21 8 4 15 13 15 20 0 8 11 19 25 24
28 11 31 20 13 38 -23 23 -43 11 -76 -43 -31 -51 -34 -54 -57 -43 -27 12 -31
23 -15 33 15 9 9 153 -6 166 -19 16 -58 -8 -48 -29 4 -9 8 -45 9 -79 2 -50 -1
-63 -12 -63 -11 0 -14 7 -10 22 3 11 1 44 -4 72 -6 28 -13 61 -15 74 -5 27
-54 33 -54 6z"/>
<path d="M2944 4505 c-10 -24 2 -41 39 -58 53 -25 62 -41 42 -71 -18 -27 -47
-36 -42 -13 1 9 -20 12 -83 12 -84 0 -85 0 -85 -25 0 -23 3 -24 45 -21 25 3
56 4 70 3 14 -1 33 -2 43 -2 38 -2 9 -24 -34 -25 -125 -6 -182 -26 -152 -56
14 -14 155 10 171 29 17 21 32 4 25 -29 -4 -24 -12 -27 -81 -41 -72 -13 -77
-16 -80 -41 -3 -22 1 -27 17 -27 22 0 103 24 137 41 27 14 118 17 119 4 0 -5
4 -16 8 -22 5 -8 -4 -23 -23 -40 -25 -23 -29 -33 -23 -55 10 -32 21 -25 73 44
19 26 45 52 58 59 36 20 63 133 46 196 -6 21 -53 42 -104 47 -9 1 -21 5 -28
10 -6 4 -17 4 -22 1 -6 -4 -23 7 -37 24 -15 17 -33 31 -40 31 -6 0 -15 9 -18
20 -7 23 -33 27 -41 5z"/>
<path d="M157 4449 c-23 -13 -22 -20 14 -65 27 -34 64 -105 57 -108 -2 -1 -12
-7 -23 -14 -60 -37 -58 -38 -120 27 -67 70 -85 76 -85 27 0 -29 8 -41 49 -75
27 -23 53 -41 57 -41 13 -1 64 -71 64 -87 0 -7 -4 -13 -10 -13 -5 0 -10 -7
-10 -16 0 -11 -5 -14 -17 -9 -48 18 -78 17 -91 -6 -19 -29 -3 -39 66 -39 29 0
69 -7 89 -15 46 -19 51 -19 118 6 70 26 120 71 107 97 -5 9 -15 40 -22 69 -6
29 -18 57 -26 64 -9 7 -11 16 -5 23 5 6 11 31 13 56 3 25 8 52 12 61 8 19 -15
32 -39 23 -11 -5 -15 -23 -15 -75 0 -69 0 -69 -27 -69 -36 0 -55 13 -48 31 6
16 -4 38 -47 106 -33 50 -39 54 -61 42z"/>
<path d="M63 4433 c-23 -8 -13 -33 39 -98 39 -49 57 -64 75 -63 12 1 23 8 23
14 0 13 -96 136 -113 145 -7 4 -18 4 -24 2z"/>
<path d="M5577 4413 c-4 -3 -7 -14 -7 -24 0 -10 -9 -20 -19 -24 -11 -3 -22
-12 -25 -20 -3 -8 -17 -15 -31 -15 -14 0 -25 -4 -25 -10 0 -6 -9 -5 -25 2 -17
8 -32 8 -52 0 -15 -6 -42 -13 -59 -17 -43 -8 -58 -54 -49 -148 7 -65 11 -76
45 -114 21 -22 48 -59 59 -82 22 -42 28 -46 55 -35 26 10 19 38 -20 78 -28 29
-32 37 -20 42 9 3 13 10 10 15 -8 13 39 29 67 23 13 -3 40 -14 59 -24 49 -26
129 -52 139 -46 15 10 19 45 7 55 -7 6 -44 18 -83 28 l-71 18 2 57 1 57 90 -2
c90 -2 90 -2 90 23 0 25 -1 25 -85 25 -63 0 -84 -3 -82 -12 3 -20 -26 -15 -38
6 -13 24 -13 31 0 31 22 0 110 63 110 79 0 28 -28 50 -43 34z"/>
<path d="M4312 4278 c-5 -8 -6 -22 -1 -33 16 -40 10 -73 -13 -80 -13 -4 -32
-18 -44 -32 l-21 -24 -38 25 c-35 24 -55 26 -55 5 0 -5 7 -9 16 -9 20 0 74
-38 74 -52 0 -5 12 -24 26 -41 20 -24 33 -31 53 -28 32 4 89 46 101 74 5 12
18 36 29 52 26 37 26 45 2 45 -13 0 -21 -9 -26 -30 -5 -22 -11 -29 -26 -27
-31 5 -39 20 -43 78 -2 30 -4 62 -5 72 -1 20 -14 22 -29 5z"/>
<path d="M4248 4230 c9 -29 22 -50 30 -50 10 0 12 7 8 25 -13 50 -26 75 -40
75 -12 0 -12 -7 2 -50z"/>
<path d="M4190 4240 c0 -24 34 -90 46 -90 17 0 17 5 4 28 -5 9 -14 29 -20 45
-9 26 -30 38 -30 17z"/>
<path d="M5558 4194 c-7 -6 2 -43 11 -45 3 -1 17 -3 31 -5 14 -1 48 -8 75 -14
44 -9 52 -8 63 7 19 27 -3 41 -83 52 -82 12 -90 13 -97 5z"/>
<path d="M5887 4183 c-3 -5 -17 -30 -32 -58 -15 -27 -43 -66 -62 -86 -30 -32
-35 -43 -40 -107 -8 -102 9 -137 74 -146 27 -4 67 -8 91 -9 23 -1 42 -4 42 -7
0 -4 20 -17 45 -29 25 -12 49 -29 54 -38 13 -23 41 -8 41 21 0 21 -10 30 -57
52 -32 14 -59 27 -61 29 -3 3 19 42 35 64 2 3 9 -3 16 -12 11 -14 22 -14 95
-5 60 9 86 16 92 29 17 30 -12 43 -67 29 -26 -6 -54 -11 -60 -11 -49 1 -63 5
-60 15 2 6 11 10 19 8 26 -4 171 36 187 52 14 15 14 18 -1 32 -15 15 -21 15
-82 -5 -36 -11 -73 -21 -82 -21 -9 0 -18 -9 -21 -20 -8 -30 -28 -19 -28 15 0
26 6 30 74 54 41 14 78 33 84 42 14 22 2 49 -22 49 -23 0 -151 -59 -151 -70 0
-4 -18 -10 -39 -14 -22 -3 -45 -8 -53 -11 -7 -3 -18 6 -25 21 -11 23 -9 29 12
52 28 30 29 31 15 66 -9 25 -24 34 -33 19z"/>
<path d="M2823 4064 c-7 -18 24 -162 39 -181 8 -9 14 -9 29 0 19 12 25 38 12
51 -5 4 -9 20 -10 34 -5 70 -18 107 -41 110 -14 2 -25 -3 -29 -14z"/>
<path d="M1676 3823 c3 -38 11 -79 16 -92 6 -17 5 -27 -4 -32 -10 -6 -16 9
-26 59 -19 94 -19 94 -44 90 -27 -4 -27 -17 -5 -97 8 -30 22 -58 30 -63 14 -7
12 -12 -9 -33 l-24 -24 -44 47 c-38 40 -46 44 -60 33 -21 -17 -21 -41 1 -41 9
0 31 -11 49 -25 18 -14 37 -25 42 -25 5 0 12 -13 15 -29 3 -16 20 -49 36 -73
29 -43 33 -45 72 -42 60 5 145 47 154 75 4 13 27 45 51 71 50 53 53 64 23 73
-16 5 -27 0 -45 -21 -13 -16 -23 -35 -24 -42 0 -9 -7 -11 -22 -6 -13 3 -23 7
-23 8 0 0 -5 10 -10 21 -11 21 -11 39 -1 147 6 62 5 67 -15 73 -33 11 -42 -8
-40 -84 2 -68 1 -71 -24 -77 -34 -8 -42 1 -22 24 10 10 14 22 11 25 -4 4 -8
20 -9 37 -1 16 -2 44 -3 60 -2 25 -6 30 -28 30 l-26 0 8 -67z"/>
<path d="M6902 3833 c-7 -3 -27 -33 -44 -66 -17 -34 -46 -77 -65 -95 -21 -19
-39 -48 -44 -70 -13 -57 -11 -146 5 -167 8 -11 12 -24 9 -31 -5 -13 99 -32
170 -30 31 1 47 -3 47 -11 0 -7 6 -13 14 -13 7 0 19 -7 26 -15 7 -8 20 -15 28
-15 9 0 27 -12 39 -27 23 -28 23 -28 38 -8 24 30 14 48 -40 75 -93 46 -89 42
-68 78 20 35 43 49 43 27 0 -11 12 -15 48 -15 76 0 92 8 92 42 0 28 -2 30 -27
24 -16 -4 -37 -7 -48 -6 -11 0 -32 1 -47 1 -20 0 -26 4 -21 15 3 9 13 14 23
11 10 -2 40 1 66 8 44 11 49 15 52 44 4 35 1 36 -64 19 -33 -9 -49 -20 -55
-36 -12 -31 -29 -18 -29 22 0 32 3 34 63 55 34 12 68 24 75 26 11 4 18 85 7
85 -11 0 -140 -62 -155 -74 -35 -29 -135 -42 -135 -18 0 7 -6 17 -14 22 -12 7
-8 16 22 46 35 37 36 38 20 68 -19 37 -15 34 -31 29z"/>
<path d="M6221 3746 c-8 -10 -8 -16 2 -24 17 -14 16 -124 -1 -130 -7 -2 -12
-12 -12 -22 0 -10 -3 -20 -7 -22 -5 -1 -19 -27 -33 -57 -18 -40 -22 -55 -12
-59 6 -2 12 -9 12 -16 0 -16 44 -57 98 -90 36 -23 50 -26 87 -21 24 4 68 1 99
-6 65 -14 81 -6 70 36 -6 26 -9 27 -60 23 -47 -4 -54 -2 -54 13 0 10 -5 21
-10 24 -15 9 54 75 78 75 11 0 25 7 32 15 7 8 16 15 21 15 18 0 78 46 79 61 0
19 -19 39 -38 39 -7 0 -39 -20 -71 -44 l-57 -44 -27 20 c-30 22 -27 42 5 32
12 -3 26 0 36 10 9 8 36 32 60 52 45 39 51 54 27 74 -13 11 -25 4 -78 -41 -62
-53 -74 -66 -80 -83 -2 -5 -11 -5 -22 1 -17 10 -17 11 3 17 12 4 22 13 22 20
0 7 20 32 45 55 38 36 43 45 35 62 -6 10 -18 19 -28 19 -24 0 -118 -119 -114
-143 3 -15 0 -18 -13 -13 -9 3 -28 6 -41 6 -21 0 -23 3 -15 19 19 34 25 122
10 132 -20 12 -35 11 -48 -5z"/>
<path d="M2246 3638 c-12 -38 -15 -65 -9 -86 6 -24 24 -26 29 -1 2 7 7 31 12
51 6 20 7 39 4 42 -10 11 -33 6 -36 -6z"/>
<path d="M2177 3633 c-9 -17 -7 -106 4 -119 9 -11 5 -16 -16 -24 -33 -13 -35
-13 -35 3 0 26 -39 77 -55 71 -19 -8 -20 -34 0 -34 8 0 15 -5 15 -10 0 -6 9
-20 20 -32 11 -12 19 -27 18 -32 -5 -32 16 -108 33 -116 30 -17 135 -12 150 6
7 8 34 27 61 40 51 26 56 35 34 53 -11 9 -20 6 -43 -13 -55 -46 -78 9 -35 85
28 50 36 95 19 102 -21 8 -31 -4 -48 -58 -15 -49 -16 -50 -54 -50 l-40 1 3 44
c1 25 3 54 5 65 2 19 -27 34 -36 18z"/>
<path d="M632 3561 c-11 -7 -11 -17 2 -61 9 -30 15 -55 13 -56 -1 -1 -14 -5
-30 -9 -23 -6 -27 -4 -27 13 0 12 -20 37 -49 61 -44 37 -50 39 -62 25 -11 -14
-10 -19 11 -35 14 -11 36 -29 50 -41 14 -12 28 -21 33 -20 16 5 5 -17 -26 -50
l-32 -34 -49 28 c-52 31 -79 33 -84 6 -3 -18 38 -42 90 -53 18 -4 47 -18 64
-31 24 -18 30 -29 27 -48 -4 -21 -11 -25 -47 -28 -34 -2 -42 -7 -44 -25 -4
-27 -2 -27 62 -8 27 8 63 15 80 15 36 1 109 61 126 104 10 28 -1 52 -53 112
-10 12 -19 36 -19 53 -1 18 -5 34 -10 37 -4 3 -4 14 2 24 5 10 10 21 10 24 0
9 -23 7 -38 -3z"/>
<path d="M417 3493 c-16 -15 -4 -32 45 -62 39 -25 56 -30 72 -24 17 8 13 14
-39 51 -60 43 -67 47 -78 35z"/>
<path d="M5435 3095 c-8 -14 -22 -36 -30 -50 -21 -34 -19 -55 5 -55 11 0 20 5
20 10 0 6 12 29 26 51 24 39 26 69 5 69 -6 0 -17 -11 -26 -25z"/>
<path d="M5880 3080 c0 -5 10 -10 23 -10 18 0 19 2 7 10 -19 13 -30 13 -30 0z"/>
<path d="M4842 2952 c-19 -6 -85 -142 -86 -177 -1 -19 -7 -31 -17 -33 -14 -3
-16 5 -12 45 2 26 11 65 20 85 17 41 11 71 -13 66 -18 -3 -53 -104 -54 -153 0
-16 -7 -38 -15 -49 -13 -17 -14 -16 -19 15 -3 19 -7 57 -8 84 -3 42 -6 50 -23
50 -17 0 -20 -8 -23 -47 -2 -26 1 -62 6 -80 5 -20 5 -57 -1 -95 -12 -72 3
-161 31 -187 35 -30 206 -21 227 13 3 6 35 11 70 11 35 0 66 4 69 9 4 5 2 21
-4 35 -8 21 -16 26 -43 26 -18 0 -38 -5 -45 -12 -14 -14 -42 6 -42 31 0 9 -5
22 -11 28 -7 7 -1 25 22 59 18 27 45 67 60 89 14 22 30 54 33 72 6 26 4 32
-14 38 -12 4 -23 5 -25 3 -1 -1 -23 -36 -49 -75 -25 -40 -50 -73 -54 -73 -15
0 -22 13 -13 24 5 6 18 41 31 77 23 70 24 129 2 121z"/>
<path d="M765 2900 c-16 -5 -48 -13 -69 -19 -52 -13 -69 -38 -42 -60 11 -9 30
-7 83 9 37 12 83 28 102 36 32 14 33 16 15 29 -21 16 -44 17 -89 5z"/>
<path d="M6834 2722 c-17 -15 -41 -44 -53 -64 -12 -21 -27 -38 -33 -38 -37 0
-148 -129 -148 -173 0 -11 23 -46 51 -78 38 -44 61 -61 92 -70 26 -7 54 -25
77 -50 41 -45 62 -49 78 -15 9 20 7 27 -11 43 -12 11 -30 23 -39 26 -19 7 -24
37 -9 52 5 6 11 19 13 30 2 14 11 20 33 21 48 1 157 25 198 43 34 15 37 18 24
35 -12 17 -19 18 -79 7 -89 -15 -118 -14 -118 4 0 8 8 15 18 15 10 0 26 6 37
14 11 7 31 16 45 19 14 3 41 20 60 36 29 25 32 30 18 36 -24 9 -159 -34 -180
-57 -10 -11 -25 -18 -33 -14 -20 7 -19 36 1 36 9 0 23 9 32 20 10 11 35 26 57
33 28 10 41 20 43 35 2 14 -2 22 -10 22 -22 0 -129 -57 -142 -76 -8 -10 -23
-14 -41 -12 l-30 3 57 58 c35 36 55 64 51 73 -8 20 -24 17 -59 -14z"/>
<path d="M1192 2716 c-13 -6 -25 -22 -28 -36 -2 -14 -9 -38 -14 -53 -4 -15 -7
-48 -6 -72 2 -27 -2 -45 -8 -45 -16 0 -56 -45 -56 -63 0 -9 -10 -17 -22 -19
-34 -5 -31 -42 4 -46 22 -3 29 3 48 40 40 81 45 84 85 65 35 -17 48 -47 20
-47 -12 0 -15 -17 -15 -89 0 -82 2 -90 20 -96 31 -10 51 11 40 40 -12 30 -15
95 -6 116 4 10 3 20 -3 24 -25 15 -7 22 57 23 l67 1 18 -67 c10 -37 22 -74 26
-82 11 -20 57 -25 64 -7 9 23 -26 114 -60 157 -7 9 -14 40 -16 69 -4 45 -2 54
14 58 10 3 20 11 23 19 7 18 26 18 26 1 0 -8 17 -26 37 -40 33 -24 40 -25 58
-13 33 22 23 39 -40 73 -33 17 -70 44 -83 58 -13 15 -40 31 -60 36 -51 12
-162 9 -190 -5z"/>
<path d="M1286 2425 c-7 -18 22 -177 34 -189 15 -15 45 7 43 30 0 11 -7 50
-15 88 -11 54 -18 71 -35 77 -15 5 -23 3 -27 -6z"/>
<path d="M6973 2192 c-18 -9 -53 -29 -77 -45 -25 -15 -65 -31 -90 -36 -30 -5
-53 -18 -70 -37 -45 -52 -88 -133 -97 -182 l-9 -47 76 -72 c42 -40 84 -73 95
-73 12 0 16 -5 12 -15 -3 -9 2 -24 11 -34 10 -11 14 -25 10 -36 -4 -10 -1 -21
7 -26 8 -5 14 -25 14 -46 0 -45 20 -53 56 -25 l23 20 -24 52 c-14 29 -37 66
-52 83 -32 33 -33 37 -14 37 7 0 25 10 40 21 29 23 33 22 50 -12 6 -12 44 -39
85 -61 41 -21 81 -43 88 -50 10 -8 18 -6 33 7 31 28 26 60 -12 75 -71 27 -115
49 -127 64 -8 10 -21 14 -32 11 -22 -7 -23 -2 -8 27 11 20 11 20 32 1 19 -17
179 -83 200 -83 4 0 7 17 7 38 0 35 -4 40 -38 55 -21 9 -46 17 -56 17 -9 0
-27 7 -40 15 -21 14 -24 14 -36 0 -12 -14 -50 -21 -50 -9 0 15 44 83 51 78 4
-2 44 -15 88 -28 l81 -23 0 48 c0 45 -1 48 -32 55 -18 4 -41 7 -50 5 -10 -1
-25 2 -35 7 -10 5 -27 6 -37 3 -21 -8 -80 9 -98 27 -7 7 -17 12 -24 12 -7 0
-11 16 -11 40 0 34 3 40 21 40 11 0 30 7 40 15 11 8 28 15 37 15 25 0 32 16
25 56 -8 39 -18 41 -63 16z"/>
<path d="M6127 2176 c-4 -9 3 -16 18 -20 14 -4 29 -15 35 -26 6 -11 20 -20 30
-20 13 0 20 -7 20 -19 0 -10 7 -25 16 -32 14 -11 19 -10 35 10 11 13 19 29 19
37 0 16 -119 84 -147 84 -12 0 -23 -6 -26 -14z"/>
<path d="M5625 2120 c-3 -5 -12 -7 -20 -4 -10 4 -16 -3 -20 -23 -4 -15 -11
-40 -17 -55 -5 -15 -11 -45 -11 -67 -1 -23 -6 -41 -10 -41 -11 0 -56 -53 -57
-66 0 -6 -12 -16 -27 -23 l-26 -12 21 -22 c26 -26 46 -18 71 29 9 16 23 39 32
51 l15 22 29 -23 c27 -21 28 -25 13 -39 -11 -12 -16 -38 -17 -99 -1 -70 1 -85
17 -94 13 -9 22 -9 34 0 12 9 14 22 7 70 -4 35 -4 67 2 77 5 10 6 25 3 33 -5
12 -2 15 10 10 10 -4 15 -13 11 -21 -9 -25 15 -187 31 -203 12 -12 16 -12 29
1 14 13 14 26 5 85 -15 102 -19 114 -35 114 -8 0 -15 5 -15 10 0 6 15 10 34
10 l35 0 16 -77 c9 -43 18 -84 21 -91 6 -20 58 -11 62 11 4 21 -25 122 -44
153 -7 11 -14 42 -17 68 -3 42 -1 47 23 60 26 12 29 11 53 -20 23 -27 31 -31
54 -25 40 11 38 25 -9 61 -24 18 -63 54 -88 80 -36 39 -55 50 -98 59 -65 14
-109 14 -117 1z"/>
<path d="M1797 3 c992 -2 2614 -2 3605 0 992 1 181 2 -1802 2 -1983 0 -2794
-1 -1803 -2z"/>
</g>
</svg>
